<svg xmlns="http://www.w3.org/2000/svg" width="15" height="15" fill="none" viewBox="0 0 15 15"><g clip-path="url(#a)"><path fill="#24292f" fill-rule="evenodd" d="M7.02.997C3.63 1.056.94 3.91 1 7.383c.048 2.776 1.845 5.095 4.295 5.884.305.057.413-.143.41-.309-.002-.145-.02-.644-.03-1.164-1.698.404-2.073-.713-2.073-.713-.287-.723-.696-.903-.696-.903-.565-.375.034-.385.034-.385.62.03.955.628.955.628.565.947 1.443.661 1.795.489.044-.407.201-.69.37-.85-1.361-.12-2.802-.637-2.844-3.049a2.48 2.48 0 0 1 .6-1.695c-.064-.154-.288-.795.032-1.664 0 0 .515-.176 1.696.615a5.8 5.8 0 0 1 1.528-.235 5.8 5.8 0 0 1 1.536.182c1.153-.832 1.673-.674 1.673-.674.35.857.148 1.505.09 1.662.404.43.647.987.659 1.673.042 2.412-1.38 2.967-2.747 3.147.227.194.426.565.437 1.157.014.842.016 1.518.02 1.726.003.166.118.362.42.294 2.422-.874 4.136-3.254 4.088-6.03-.05-3.472-2.85-6.231-6.229-6.172" clip-rule="evenodd"/></g><defs><clipPath id="a"><path fill="#fff" d="M0 .244 13.998 0l.244 13.998-13.998.244z"/></clipPath></defs></svg>
