<svg xmlns="http://www.w3.org/2000/svg" width="15" height="15" fill="none" viewBox="0 0 15 15"><path fill="url(#a)" d="M1.066 3.078A2.19 2.19 0 0 1 3.29.928l7.874.138a2.19 2.19 0 0 1 2.149 2.226l-.138 7.873a2.19 2.19 0 0 1-2.225 2.15l-7.874-.138a2.187 2.187 0 0 1-2.149-2.225z"/><path fill="url(#b)" d="M2.836 8.056c-.018-.083.082-.134.141-.072l3.139 3.25c.059.061.005.16-.078.138a4.39 4.39 0 0 1-3.202-3.316"/><path fill="url(#c)" d="M2.752 6.774a.09.09 0 0 0 .024.067l4.475 4.634a.09.09 0 0 0 .066.027q.311-.016.61-.07a.085.085 0 0 0 .045-.144L2.988 6.127a.085.085 0 0 0-.145.04 4.4 4.4 0 0 0-.091.607"/><path fill="url(#d)" d="M3.146 5.277a.09.09 0 0 0 .016.097l5.569 5.766a.09.09 0 0 0 .096.02q.236-.1.457-.228a.086.086 0 0 0 .019-.134l-5.78-5.984a.086.086 0 0 0-.134.013q-.134.217-.243.45"/><path fill="url(#e)" d="M3.903 4.272a.086.086 0 0 1-.002-.118 4.38 4.38 0 1 1 6.074 6.29.086.086 0 0 1-.118-.006z"/><defs><linearGradient id="a" x1="7.228" x2="7.014" y1=".998" y2="13.246" gradientUnits="userSpaceOnUse"><stop stop-color="#5c6bf1"/><stop offset="1" stop-color="#283188"/></linearGradient><linearGradient id="b" x1="3.566" x2="15.132" y1="-8.946" y2="8.658" gradientUnits="userSpaceOnUse"><stop stop-color="#fff"/><stop offset="1" stop-color="#fff" stop-opacity=".65"/></linearGradient><linearGradient id="c" x1="3.411" x2="10.717" y1="-1.614" y2="9.506" gradientUnits="userSpaceOnUse"><stop stop-color="#fff"/><stop offset="1" stop-color="#fff" stop-opacity=".65"/></linearGradient><linearGradient id="d" x1="2.787" x2="8.975" y1=".873" y2="10.293" gradientUnits="userSpaceOnUse"><stop stop-color="#fff"/><stop offset="1" stop-color="#fff" stop-opacity=".65"/></linearGradient><linearGradient id="e" x1="3.121" x2="7.566" y1="3.49" y2="10.256" gradientUnits="userSpaceOnUse"><stop stop-color="#fff"/><stop offset="1" stop-color="#fff" stop-opacity=".65"/></linearGradient></defs></svg>
