<svg xmlns="http://www.w3.org/2000/svg" width="15" height="15" fill="none" viewBox="0 0 15 15"><path fill="#1e2226" fill-rule="evenodd" d="m8.45 1.874-5.818.53c-.47.05-.628.359-.621.726l.11 6.368c.006.286.112.529.363.851l1.4 1.752c.23.282.436.34.866.312l6.759-.527c.571-.05.73-.318.723-.768l-.125-7.164c-.005-.232-.098-.297-.372-.49l-.047-.033-1.883-1.274c-.455-.319-.64-.357-1.354-.283M4.757 3.965c-.552.047-.678.058-.996-.192l-.809-.618c-.082-.08-.043-.184.16-.207l5.595-.506c.47-.05.717.11.904.25l.973.677c.041.02.145.14.023.142l-5.78.448zm-.519 7.232-.106-6.083c-.005-.265.075-.389.32-.414l6.637-.503c.225-.025.33.117.334.382l.105 6.041c.005.266-.032.491-.4.518l-6.35.478c-.368.027-.534-.092-.54-.42m6.176-5.866c.044.183.006.368-.178.392l-.305.066.079 4.49c-.264.148-.508.234-.712.237-.327.006-.411-.095-.661-.396L6.577 7.01l.053 3.042.637.131s.006.368-.506.377l-1.408.106c-.043-.081-.005-.286.137-.33l.366-.107-.07-4.021-.512-.032c-.044-.184.054-.45.34-.476l1.51-.128L9.267 8.72l-.05-2.816-.532-.052c-.045-.224.115-.39.32-.414z" clip-rule="evenodd"/></svg>
