<svg width="848" height="849" viewBox="0 0 848 849" fill="none" xmlns="http://www.w3.org/2000/svg">
<g filter="url(#filter0_f_40251_6506)">
<mask id="mask0_40251_6506" style="mask-type:alpha" maskUnits="userSpaceOnUse" x="237" y="0" width="500" height="577">
<path d="M612.586 576.141C621.733 479.492 582.369 380.436 499.572 317.112C422.02 257.799 324.194 243.473 237.43 269.948L593.788 0L736.511 83.9552L612.586 576.141Z" fill="url(#paint0_linear_40251_6506)"/>
</mask>
<g mask="url(#mask0_40251_6506)">
<g filter="url(#filter1_f_40251_6506)">
<rect x="234.852" y="174.439" width="410.448" height="410.448" rx="205.224" fill="white"/>
</g>
<g filter="url(#filter2_f_40251_6506)">
<circle cx="374.328" cy="482.329" r="261.307" transform="rotate(45 374.328 482.329)" fill="white"/>
</g>
<g filter="url(#filter3_f_40251_6506)">
<ellipse cx="454.675" cy="342.41" rx="181.147" ry="169.678" transform="rotate(33.8526 454.675 342.41)" fill="white"/>
</g>
<g filter="url(#filter4_f_40251_6506)">
<ellipse cx="380.267" cy="320.128" rx="135.254" ry="126.691" transform="rotate(33.8526 380.267 320.128)" fill="white"/>
</g>
<g filter="url(#filter5_f_40251_6506)">
<ellipse cx="578.227" cy="424.026" rx="135.254" ry="126.691" transform="rotate(33.8526 578.227 424.026)" fill="white"/>
</g>
<g filter="url(#filter6_f_40251_6506)">
<ellipse cx="454.675" cy="342.41" rx="181.147" ry="169.678" transform="rotate(33.8526 454.675 342.41)" fill="white"/>
</g>
<g filter="url(#filter7_f_40251_6506)" style="mix-blend-mode:overlay">
<ellipse cx="454.675" cy="342.41" rx="181.147" ry="169.678" transform="rotate(33.8526 454.675 342.41)" fill="white"/>
</g>
<g filter="url(#filter8_f_40251_6506)" style="mix-blend-mode:overlay">
<ellipse cx="454.675" cy="342.41" rx="181.147" ry="169.678" transform="rotate(33.8526 454.675 342.41)" fill="white"/>
</g>
</g>
</g>
<g filter="url(#filter9_fg_40251_6506)">
<mask id="mask1_40251_6506" style="mask-type:alpha" maskUnits="userSpaceOnUse" x="174" y="174" width="500" height="501">
<rect x="174" y="174.439" width="500" height="500" rx="250" fill="black"/>
</mask>
<g mask="url(#mask1_40251_6506)">
<rect x="174" y="174.439" width="500" height="500" rx="250" fill="white"/>
<mask id="mask2_40251_6506" style="mask-type:alpha" maskUnits="userSpaceOnUse" x="174" y="174" width="500" height="501">
<rect x="174" y="174.439" width="500" height="500" rx="250" fill="black"/>
</mask>
<g mask="url(#mask2_40251_6506)">
<g filter="url(#filter10_f_40251_6506)">
<path fill-rule="evenodd" clip-rule="evenodd" d="M-9.3309 928.983C36.5067 1020.4 111.109 1043.49 175.305 1089.03C220.453 1121.06 262.738 1128.7 308.165 1154.22C374.727 1191.61 464.473 1331.49 502.786 1273C542.898 1211.76 436.745 1056.31 438.311 955.525C439.703 865.92 543.048 847.515 510.869 752.706C478.676 657.859 388.787 696.313 329.872 636.038C279.245 584.242 254.708 474.236 201.789 436.49C141.119 393.216 77.67 389.923 31.627 423.308C-18.1385 459.392 -50.157 532.928 -57.5782 624.551C-65.133 717.825 -57.0101 833.888 -9.3309 928.983Z" fill="white"/>
</g>
<g filter="url(#filter11_f_40251_6506)" style="mix-blend-mode:screen">
<path fill-rule="evenodd" clip-rule="evenodd" d="M299.974 199.247C228.744 190.068 177.698 240.937 120.519 271.268C80.3068 292.598 54.1818 324.279 17.1822 349.254C-37.031 385.847 -156.301 388.354 -146.207 451.306C-135.638 517.214 0.274322 509.014 51.4722 563.097C96.9906 611.18 52.2825 708.024 118.096 730.502C183.937 752.989 211.239 657.005 273.252 638.844C326.541 623.237 396.19 660.121 443.431 635.224C497.589 606.682 532.57 554.865 539.49 498.534C546.969 437.649 525.809 372.133 482.411 317.905C438.231 262.701 374.065 208.796 299.974 199.247Z" fill="white"/>
</g>
<g filter="url(#filter12_f_40251_6506)" style="mix-blend-mode:overlay">
<path fill-rule="evenodd" clip-rule="evenodd" d="M-21.7747 530.709C25.2448 568.818 122.352 542.261 201.71 537.503C257.519 534.157 313.451 515.271 370.705 507.178C454.596 495.319 553.061 542.367 614.448 479.158C678.719 412.98 560.617 364.377 579.235 292.46C595.787 228.521 738.556 156.23 710.561 107.895C682.555 59.5391 554.701 138.233 484.897 129.578C424.913 122.14 409.742 58.7084 344.357 62.4869C269.397 66.8188 184.133 100.919 116.403 150.873C43.1961 204.865 -12.1425 275.062 -37.1789 343.885C-62.6661 413.947 -70.6832 491.068 -21.7747 530.709Z" fill="white"/>
</g>
<g filter="url(#filter13_f_40251_6506)" style="mix-blend-mode:overlay">
<path fill-rule="evenodd" clip-rule="evenodd" d="M287.81 890.422C317.493 911.218 414.078 893.161 487.329 888.224C538.844 884.753 595.677 872.272 650.088 866.009C729.813 856.833 802.953 881.397 879.569 843.078C959.784 802.958 869.432 778.031 910.348 735.839C946.725 698.327 1099.87 652.509 1090.79 625.264C1081.71 598.007 939.887 647.126 879.759 644.026C828.089 641.362 835.65 605.015 775.344 609C706.207 613.569 617.788 635.673 539.887 666.485C455.688 699.788 382.192 741.991 336.518 782.566C290.022 823.872 256.934 868.79 287.81 890.422Z" fill="white"/>
</g>
<g opacity="0.6" filter="url(#filter14_f_40251_6506)" style="mix-blend-mode:soft-light">
<path fill-rule="evenodd" clip-rule="evenodd" d="M306.71 229.818C206.422 234.589 132.403 290.009 50.4877 327.963C-7.1209 354.656 -45.2141 388.13 -98.4201 417.53C-176.38 460.61 -344.976 484.782 -333.068 539.91C-320.601 597.627 -128.28 565.245 -57.9706 604.797C4.53925 639.961 -62.244 735.83 29.896 744.09C122.074 752.354 164.234 660.459 252.524 632.632C328.393 608.719 425.413 629.314 493.084 598.104C570.665 562.322 622.023 508.995 633.905 456.736C646.747 400.251 619.302 344.835 560.017 303.719C499.665 261.864 411.028 224.854 306.71 229.818Z" fill="white"/>
</g>
<g filter="url(#filter15_f_40251_6506)" style="mix-blend-mode:plus-lighter">
<path d="M316.04 210.517C313.54 213.513 311.075 216.611 308.647 219.813C235.415 316.4 224.254 470.351 283.717 563.673C336.749 646.902 428.044 653.798 499.12 585.803C433.598 663.712 336.707 655.327 278.978 564.725C219.348 471.142 224.08 325.281 289.547 238.935C297.852 227.982 306.736 218.512 316.04 210.517Z" fill="white"/>
</g>
<g opacity="0.8" filter="url(#filter16_f_40251_6506)">
<path fill-rule="evenodd" clip-rule="evenodd" d="M314.866 948.188C365.401 937.172 379.059 880.681 404.822 839.948C422.941 811.302 427.713 777.614 442.284 746.732C463.634 701.483 541.232 667.914 509.862 617.324C477.019 564.358 390.692 607.131 335.723 574.881C286.852 546.209 278.282 452.5 226.093 450.839C173.883 449.177 193.585 537.569 159.858 569.283C130.876 596.535 70.5043 583.7 49.1553 617.216C24.6799 655.64 21.9796 708.696 39.5396 758.172C58.5193 811.647 98.1867 861.488 148.073 895.917C198.858 930.966 262.301 959.646 314.866 948.188Z" fill="white"/>
</g>
<g filter="url(#filter17_f_40251_6506)">
<path fill-rule="evenodd" clip-rule="evenodd" d="M254.782 387.643C225.785 359.514 183.124 375.026 145.487 375.854C119.019 376.437 95.0344 387.882 68.6435 391.739C29.9746 397.39 -25.3887 361.391 -44.7614 403.657C-65.0443 447.908 0.0793663 485.613 2.83512 535.315C5.28517 579.504 -51.9962 625.558 -30.5352 660.238C-9.06535 694.933 39.9484 643.931 75.1548 652.182C105.409 659.271 123.132 704.104 154.165 703.52C189.742 702.851 225.437 681.691 250.049 648.894C276.651 613.444 291.953 566.101 292.81 518.765C293.683 470.576 284.944 416.901 254.782 387.643Z" fill="white"/>
</g>
<g filter="url(#filter18_f_40251_6506)">
<path d="M399.766 654.547C339.044 619.599 283.858 558.881 255.631 488.993C245.156 463.056 239.318 438.14 237.72 415.135C199.916 440.098 185.127 481.889 203.901 528.371C230.301 593.735 314.116 646.221 399.766 654.547Z" fill="white"/>
</g>
<g opacity="0.4" style="mix-blend-mode:overlay">
<rect x="90.4375" y="3.42773" width="668.216" height="847.836" fill="white"/>
</g>
</g>
</g>
</g>
<defs>
<filter id="filter0_f_40251_6506" x="134.866" y="66.514" width="678.597" height="612.191" filterUnits="userSpaceOnUse" color-interpolation-filters="sRGB">
<feFlood flood-opacity="0" result="BackgroundImageFix"/>
<feBlend mode="normal" in="SourceGraphic" in2="BackgroundImageFix" result="shape"/>
<feGaussianBlur stdDeviation="51.2821" result="effect1_foregroundBlur_40251_6506"/>
</filter>
<filter id="filter1_f_40251_6506" x="104.255" y="43.8425" width="671.639" height="671.641" filterUnits="userSpaceOnUse" color-interpolation-filters="sRGB">
<feFlood flood-opacity="0" result="BackgroundImageFix"/>
<feBlend mode="normal" in="SourceGraphic" in2="BackgroundImageFix" result="shape"/>
<feGaussianBlur stdDeviation="65.2985" result="effect1_foregroundBlur_40251_6506"/>
</filter>
<filter id="filter2_f_40251_6506" x="75.8406" y="183.839" width="596.975" height="596.981" filterUnits="userSpaceOnUse" color-interpolation-filters="sRGB">
<feFlood flood-opacity="0" result="BackgroundImageFix"/>
<feBlend mode="normal" in="SourceGraphic" in2="BackgroundImageFix" result="shape"/>
<feGaussianBlur stdDeviation="18.5914" result="effect1_foregroundBlur_40251_6506"/>
</filter>
<filter id="filter3_f_40251_6506" x="82.9545" y="-24.9517" width="743.442" height="734.724" filterUnits="userSpaceOnUse" color-interpolation-filters="sRGB">
<feFlood flood-opacity="0" result="BackgroundImageFix"/>
<feBlend mode="normal" in="SourceGraphic" in2="BackgroundImageFix" result="shape"/>
<feGaussianBlur stdDeviation="97.0149" result="effect1_foregroundBlur_40251_6506"/>
</filter>
<filter id="filter4_f_40251_6506" x="53.5639" y="-3.32085" width="653.403" height="646.898" filterUnits="userSpaceOnUse" color-interpolation-filters="sRGB">
<feFlood flood-opacity="0" result="BackgroundImageFix"/>
<feBlend mode="normal" in="SourceGraphic" in2="BackgroundImageFix" result="shape"/>
<feGaussianBlur stdDeviation="97.0149" result="effect1_foregroundBlur_40251_6506"/>
</filter>
<filter id="filter5_f_40251_6506" x="251.525" y="100.578" width="653.403" height="646.898" filterUnits="userSpaceOnUse" color-interpolation-filters="sRGB">
<feFlood flood-opacity="0" result="BackgroundImageFix"/>
<feBlend mode="normal" in="SourceGraphic" in2="BackgroundImageFix" result="shape"/>
<feGaussianBlur stdDeviation="97.0149" result="effect1_foregroundBlur_40251_6506"/>
</filter>
<filter id="filter6_f_40251_6506" x="82.9545" y="-24.9517" width="743.442" height="734.724" filterUnits="userSpaceOnUse" color-interpolation-filters="sRGB">
<feFlood flood-opacity="0" result="BackgroundImageFix"/>
<feBlend mode="normal" in="SourceGraphic" in2="BackgroundImageFix" result="shape"/>
<feGaussianBlur stdDeviation="97.0149" result="effect1_foregroundBlur_40251_6506"/>
</filter>
<filter id="filter7_f_40251_6506" x="202.358" y="94.4513" width="504.637" height="495.918" filterUnits="userSpaceOnUse" color-interpolation-filters="sRGB">
<feFlood flood-opacity="0" result="BackgroundImageFix"/>
<feBlend mode="normal" in="SourceGraphic" in2="BackgroundImageFix" result="shape"/>
<feGaussianBlur stdDeviation="37.3134" result="effect1_foregroundBlur_40251_6506"/>
</filter>
<filter id="filter8_f_40251_6506" x="202.358" y="94.4513" width="504.637" height="495.918" filterUnits="userSpaceOnUse" color-interpolation-filters="sRGB">
<feFlood flood-opacity="0" result="BackgroundImageFix"/>
<feBlend mode="normal" in="SourceGraphic" in2="BackgroundImageFix" result="shape"/>
<feGaussianBlur stdDeviation="37.3134" result="effect1_foregroundBlur_40251_6506"/>
</filter>
<filter id="filter9_fg_40251_6506" x="136.687" y="137.126" width="574.627" height="574.627" filterUnits="userSpaceOnUse" color-interpolation-filters="sRGB">
<feFlood flood-opacity="0" result="BackgroundImageFix"/>
<feBlend mode="normal" in="SourceGraphic" in2="BackgroundImageFix" result="shape"/>
<feGaussianBlur stdDeviation="18.6567" result="effect1_foregroundBlur_40251_6506"/>
<feTurbulence type="fractalNoise" baseFrequency="0.36264583468437195 0.36264583468437195" numOctaves="3" seed="2012" result="displacementX" />
<feTurbulence type="fractalNoise" baseFrequency="0.36264583468437195 0.36264583468437195" numOctaves="3" seed="2013" result="displacementY" />
<feColorMatrix in="displacementX" type="matrix" values="0 0 0 1 0  0 0 0 0 0  0 0 0 0 0  0 0 0 0 1" result="displacementXRed" />
<feColorMatrix in="displacementY" type="matrix" values="0 0 0 0 0  0 0 0 1 0  0 0 0 0 0  0 0 0 0 1" />
<feComposite in="displacementXRed" operator="arithmetic" k1="0" k2="1" k3="1" k4="0"/>
<feDisplacementMap in="effect1_foregroundBlur_40251_6506" scale="16.531782150268555" xChannelSelector="R" yChannelSelector="G" width="100%" height="100%" />
<feColorMatrix type="matrix" values="0 0 0 0 0  0 0 0 0 0  0 0 0 0 0  0 0 0 1 0" />
<feComponentTransfer result="sourceDisplacedAlpha">
<feFuncA type="gamma" exponent="0.2" />
</feComponentTransfer>
<feColorMatrix in="effect1_foregroundBlur_40251_6506" type="matrix" values="0 0 0 0 0  0 0 0 0 0  0 0 0 0 0  0 0 0 1 0" />
<feComponentTransfer result="inputSourceAlpha">
<feFuncA type="gamma" exponent="0.2" />
</feComponentTransfer>
<feComposite in="sourceDisplacedAlpha" operator="arithmetic" k1="1" k2="0" k3="0" k4="0" result="displacementAlphasMultiplied"/>
<feComposite in="displacementAlphasMultiplied"  operator="arithmetic" k1="0" k2="0" k3="-0.5" k4="0.5" result="centeringAdjustment"/>
<feComposite in="displacementX" in2="displacementAlphasMultiplied" operator="arithmetic" k1="1" k2="0" k3="0" k4="0" />
<feComposite in="centeringAdjustment" operator="arithmetic" k1="0" k2="1" k3="1" k4="0" />
<feColorMatrix  type="matrix" values="0 0 0 1 0  0 0 0 0 0  0 0 0 0 0  0 0 0 0 1" result="displacementXFinal" />
<feComposite in="displacementY" in2="displacementAlphasMultiplied" operator="arithmetic" k1="1" k2="0" k3="0" k4="0" />
<feComposite in="centeringAdjustment" operator="arithmetic" k1="0" k2="1" k3="1" k4="0" />
<feColorMatrix  type="matrix" values="0 0 0 0 0  0 0 0 1 0  0 0 0 0 0  0 0 0 0 1" result="displacementYFinal" />
<feComposite in="displacementXFinal" in2="displacementYFinal" operator="arithmetic" k1="0" k2="1" k3="1" k4="0" />
<feComposite in2="displacementAlphasMultiplied" operator="in" result="displacementMap" />
<feFlood flood-color="rgb(127, 127, 127)" flood-opacity="1"/>
<feComposite in2="displacementAlphasMultiplied" operator="out" />
<feComposite in2="displacementMap" operator="over" result="displacementMapWithBg"/>
<feDisplacementMap in="effect1_foregroundBlur_40251_6506" scale="16.531782150268555" xChannelSelector="R" yChannelSelector="G" width="100%" height="100%" result="displacedImage" />
<feColorMatrix in="effect1_foregroundBlur_40251_6506" type="matrix" values="1 0 0 0 0  0 1 0 0 0  0 0 1 0 0  0 0 0 127 0" result="imageOpaque" />
<feDisplacementMap in="imageOpaque" in2="displacementMapWithBg" scale="16.531782150268555" xChannelSelector="R" yChannelSelector="G" width="100%" height="100%" result="displacedImageOpaque" />
<feColorMatrix in="displacedImage" type="matrix" values="0 0 0 1 0  0 0 0 0 0  0 0 0 0 0  0 0 0 127 0" result="displacedImageRed" />
<feColorMatrix in="effect1_foregroundBlur_40251_6506" type="matrix" values="0 0 0 1 0  0 0 0 0 0  0 0 0 0 0  0 0 0 127 0" />
<feComposite in="displacedImageRed"  operator="atop" result="transparencyRedMap"/>
<feColorMatrix in="transparencyRedMap" type="matrix" values="0 0 0 0 0  0 0 0 0 0  0 0 0 0 0  1 0 0 0 0" result="transparencyAlphaMap" />
<feComposite in="displacedImageOpaque" in2="imageOpaque" operator="over" />
<feComposite in2="transparencyAlphaMap" operator="in" result="effect2_texture_40251_6506"/>
</filter>
<filter id="filter10_f_40251_6506" x="-235.713" y="225.145" width="928.464" height="1237.64" filterUnits="userSpaceOnUse" color-interpolation-filters="sRGB">
<feFlood flood-opacity="0" result="BackgroundImageFix"/>
<feBlend mode="normal" in="SourceGraphic" in2="BackgroundImageFix" result="shape"/>
<feGaussianBlur stdDeviation="87.8367" result="effect1_foregroundBlur_40251_6506"/>
</filter>
<filter id="filter11_f_40251_6506" x="-324.929" y="20.0395" width="1044.01" height="891.972" filterUnits="userSpaceOnUse" color-interpolation-filters="sRGB">
<feFlood flood-opacity="0" result="BackgroundImageFix"/>
<feBlend mode="normal" in="SourceGraphic" in2="BackgroundImageFix" result="shape"/>
<feGaussianBlur stdDeviation="89.0584" result="effect1_foregroundBlur_40251_6506"/>
</filter>
<filter id="filter12_f_40251_6506" x="-217.038" y="-97.2684" width="1090.82" height="807.797" filterUnits="userSpaceOnUse" color-interpolation-filters="sRGB">
<feFlood flood-opacity="0" result="BackgroundImageFix"/>
<feBlend mode="normal" in="SourceGraphic" in2="BackgroundImageFix" result="shape"/>
<feGaussianBlur stdDeviation="79.7963" result="effect1_foregroundBlur_40251_6506"/>
</filter>
<filter id="filter13_f_40251_6506" x="97.6801" y="430.579" width="1171.62" height="647.745" filterUnits="userSpaceOnUse" color-interpolation-filters="sRGB">
<feFlood flood-opacity="0" result="BackgroundImageFix"/>
<feBlend mode="normal" in="SourceGraphic" in2="BackgroundImageFix" result="shape"/>
<feGaussianBlur stdDeviation="89.0584" result="effect1_foregroundBlur_40251_6506"/>
</filter>
<filter id="filter14_f_40251_6506" x="-452.708" y="110.325" width="1208.76" height="753.332" filterUnits="userSpaceOnUse" color-interpolation-filters="sRGB">
<feFlood flood-opacity="0" result="BackgroundImageFix"/>
<feBlend mode="normal" in="SourceGraphic" in2="BackgroundImageFix" result="shape"/>
<feGaussianBlur stdDeviation="59.5219" result="effect1_foregroundBlur_40251_6506"/>
</filter>
<filter id="filter15_f_40251_6506" x="173.875" y="147.213" width="388.546" height="555.029" filterUnits="userSpaceOnUse" color-interpolation-filters="sRGB">
<feFlood flood-opacity="0" result="BackgroundImageFix"/>
<feBlend mode="normal" in="SourceGraphic" in2="BackgroundImageFix" result="shape"/>
<feGaussianBlur stdDeviation="31.6522" result="effect1_foregroundBlur_40251_6506"/>
</filter>
<filter id="filter16_f_40251_6506" x="-121.012" y="301.563" width="787.5" height="798.441" filterUnits="userSpaceOnUse" color-interpolation-filters="sRGB">
<feFlood flood-opacity="0" result="BackgroundImageFix"/>
<feBlend mode="normal" in="SourceGraphic" in2="BackgroundImageFix" result="shape"/>
<feGaussianBlur stdDeviation="74.6269" result="effect1_foregroundBlur_40251_6506"/>
</filter>
<filter id="filter17_f_40251_6506" x="-160.612" y="258.905" width="565.42" height="556.56" filterUnits="userSpaceOnUse" color-interpolation-filters="sRGB">
<feFlood flood-opacity="0" result="BackgroundImageFix"/>
<feBlend mode="normal" in="SourceGraphic" in2="BackgroundImageFix" result="shape"/>
<feGaussianBlur stdDeviation="55.9701" result="effect1_foregroundBlur_40251_6506"/>
</filter>
<filter id="filter18_f_40251_6506" x="139.811" y="359.165" width="315.925" height="351.352" filterUnits="userSpaceOnUse" color-interpolation-filters="sRGB">
<feFlood flood-opacity="0" result="BackgroundImageFix"/>
<feBlend mode="normal" in="SourceGraphic" in2="BackgroundImageFix" result="shape"/>
<feGaussianBlur stdDeviation="27.9851" result="effect1_foregroundBlur_40251_6506"/>
</filter>
<linearGradient id="paint0_linear_40251_6506" x1="657.22" y1="154.93" x2="543.458" y2="390.291" gradientUnits="userSpaceOnUse">
<stop stop-color="#D9D9D9" stop-opacity="0"/>
<stop offset="1" stop-color="#737373"/>
</linearGradient>
</defs>
</svg>
